<svg width="55" height="55" viewBox="0 0 55 55" fill="none" xmlns="http://www.w3.org/2000/svg">
<path d="M46.6214 8.37858C41.5139 3.2713 34.723 0.458332 27.5 0.458332C20.277 0.458332 13.4861 3.27119 8.37859 8.37858C3.2713 13.4861 0.458336 20.277 0.458336 27.5C0.458336 34.723 3.2712 41.5139 8.37859 46.6214C13.4861 51.7287 20.277 54.5417 27.5 54.5417C34.723 54.5417 41.5139 51.7288 46.6214 46.6214C51.7287 41.5139 54.5417 34.723 54.5417 27.5C54.5417 20.277 51.7288 13.4861 46.6214 8.37858ZM12.1945 45.8056C13.0875 38.1225 19.6932 32.1908 27.5 32.1908C31.6154 32.1908 35.4855 33.7942 38.3965 36.7048C40.8557 39.1645 42.4068 42.3759 42.8058 45.8052C38.659 49.2783 33.3197 51.3727 27.5 51.3727C21.6803 51.3727 16.3414 49.2787 12.1945 45.8056ZM27.5 28.9268C22.9715 28.9268 19.2867 25.2421 19.2867 20.7136C19.2867 16.1846 22.9716 12.5003 27.5 12.5003C32.0284 12.5003 35.7133 16.1846 35.7133 20.7136C35.7133 25.2421 32.0285 28.9269 27.5 28.9269V28.9268ZM45.5333 43.1265C44.7191 39.8477 43.0263 36.8529 40.6371 34.4643C38.6895 32.5166 36.3854 31.0556 33.8725 30.1399C36.8934 28.0913 38.8822 24.6302 38.8822 20.7136C38.8822 14.4376 33.776 9.33138 27.5 9.33138C21.224 9.33138 16.1178 14.4376 16.1178 20.7136C16.1178 24.6323 18.1083 28.0946 21.1316 30.1429C18.8196 30.9854 16.6803 32.2881 14.8395 34.0029C12.1739 36.4852 10.3229 39.6505 9.46469 43.124C5.82991 38.9338 3.62728 33.4694 3.62728 27.5C3.62728 14.3365 14.3365 3.62728 27.5 3.62728C40.6635 3.62728 51.3727 14.3365 51.3727 27.5C51.3727 33.4706 49.1692 38.9363 45.5333 43.1265Z" fill="black"/>
</svg>
